{
  "asset": {
    "generator": "Khronos glTF Blender I/O v1.3.48",
    "version": "2.0"
  },
  "scene": 0,
  "scenes": [
    {
      "name": "Scene",
      "nodes": [
        0,
        1,
        2,
        3,
        4,
        5
      ]
    }
  ],
  "nodes": [
    {
      "name": "Cube",
      "scale": [
        1.6666666269302368,
        1,
        1.6666666269302368
      ]
    },
    {
      "mesh": 0,
      "name": "Window1",
      "scale": [
        1.6666666269302368,
        1,
        1.6666666269302368
      ],
      "translation": [
        -8.958039283752441,
        52.35292434692383,
        -50
      ]
    },
    {
      "mesh": 1,
      "name": "Front Door",
      "scale": [
        1.6666666269302368,
        1,
        1.6666666269302368
      ]
    },
    {
      "mesh": 2,
      "name": "Window2",
      "scale": [
        1.6666666269302368,
        1,
        1.6666666269302368
      ],
      "translation": [
        10.932267189025879,
        52.35292434692383,
        -50
      ]
    },
    {
      "mesh": 3,
      "name": "Window3",
      "scale": [
        1.6666666269302368,
        1,
        1.6666666269302368
      ],
      "translation": [
        31.093631744384766,
        52.35292434692383,
        -50
      ]
    },
    {
      "mesh": 4,
      "name": "Suzanne",
      "translation": [
        0,
        48.62849044799805,
        -31.6665096282959
      ]
    }
  ],
  "materials": [
    {
      "doubleSided": true,
      "emissiveFactor": [
        0,
        0,
        0
      ],
      "name": "Glass",
      "pbrMetallicRoughness": {
        "baseColorFactor": [
          0.800000011920929,
          0.800000011920929,
          0.800000011920929,
          1
        ],
        "metallicFactor": 0,
        "roughnessFactor": 0
      }
    },
    {
      "doubleSided": true,
      "emissiveFactor": [
        0,
        0,
        0
      ],
      "name": "Material",
      "pbrMetallicRoughness": {
        "baseColorFactor": [
          0.800000011920929,
          0.800000011920929,
          0.800000011920929,
          1
        ],
        "metallicFactor": 0,
        "roughnessFactor": 0.4000000059604645
      }
    }
  ],
  "meshes": [
    {
      "name": "Cube.002",
      "primitives": [
        {
          "attributes": {
            "POSITION": 0,
            "NORMAL": 1,
            "TEXCOORD_0": 2
          },
          "indices": 3,
          "material": 0
        }
      ]
    },
    {
      "name": "Cube.003",
      "primitives": [
        {
          "attributes": {
            "POSITION": 4,
            "NORMAL": 5,
            "TEXCOORD_0": 6
          },
          "indices": 7,
          "material": 1
        }
      ]
    },
    {
      "name": "Cube.004",
      "primitives": [
        {
          "attributes": {
            "POSITION": 8,
            "NORMAL": 9,
            "TEXCOORD_0": 10
          },
          "indices": 3,
          "material": 0
        }
      ]
    },
    {
      "name": "Cube.005",
      "primitives": [
        {
          "attributes": {
            "POSITION": 11,
            "NORMAL": 12,
            "TEXCOORD_0": 13
          },
          "indices": 3,
          "material": 0
        }
      ]
    },
    {
      "name": "Suzanne",
      "primitives": [
        {
          "attributes": {
            "POSITION": 14,
            "NORMAL": 15,
            "TEXCOORD_0": 16
          },
          "indices": 17
        }
      ]
    }
  ],
  "accessors": [
    {
      "bufferView": 0,
      "componentType": 5126,
      "count": 11,
      "max": [
        5.946252822875977,
        14.460765838623047,
        0
      ],
      "min": [
        -5.6865129470825195,
        -32.35292434692383,
        0
      ],
      "type": "VEC3"
    },
    {
      "bufferView": 1,
      "componentType": 5126,
      "count": 11,
      "type": "VEC3"
    },
    {
      "bufferView": 2,
      "componentType": 5126,
      "count": 11,
      "type": "VEC2"
    },
    {
      "bufferView": 3,
      "componentType": 5123,
      "count": 27,
      "type": "SCALAR"
    },
    {
      "bufferView": 4,
      "componentType": 5126,
      "count": 11,
      "max": [
        -11.061336517333984,
        40,
        -30
      ],
      "min": [
        -22.5,
        -0.0000019073486328125,
        -30
      ],
      "type": "VEC3"
    },
    {
      "bufferView": 5,
      "componentType": 5126,
      "count": 11,
      "type": "VEC3"
    },
    {
      "bufferView": 6,
      "componentType": 5126,
      "count": 11,
      "type": "VEC2"
    },
    {
      "bufferView": 7,
      "componentType": 5123,
      "count": 27,
      "type": "SCALAR"
    },
    {
      "bufferView": 8,
      "componentType": 5126,
      "count": 11,
      "max": [
        5.946252822875977,
        14.460765838623047,
        0
      ],
      "min": [
        -5.6865129470825195,
        -32.35292434692383,
        0
      ],
      "type": "VEC3"
    },
    {
      "bufferView": 9,
      "componentType": 5126,
      "count": 11,
      "type": "VEC3"
    },
    {
      "bufferView": 10,
      "componentType": 5126,
      "count": 11,
      "type": "VEC2"
    },
    {
      "bufferView": 11,
      "componentType": 5126,
      "count": 11,
      "max": [
        5.946252822875977,
        14.460765838623047,
        0
      ],
      "min": [
        -5.6865129470825195,
        -32.35292434692383,
        0
      ],
      "type": "VEC3"
    },
    {
      "bufferView": 12,
      "componentType": 5126,
      "count": 11,
      "type": "VEC3"
    },
    {
      "bufferView": 13,
      "componentType": 5126,
      "count": 11,
      "type": "VEC2"
    },
    {
      "bufferView": 14,
      "componentType": 5126,
      "count": 1966,
      "max": [
        1.3671875,
        0.984375,
        0.8515625
      ],
      "min": [
        -1.3671875,
        -0.984375,
        -0.8515625
      ],
      "type": "VEC3"
    },
    {
      "bufferView": 15,
      "componentType": 5126,
      "count": 1966,
      "type": "VEC3"
    },
    {
      "bufferView": 16,
      "componentType": 5126,
      "count": 1966,
      "type": "VEC2"
    },
    {
      "bufferView": 17,
      "componentType": 5123,
      "count": 2904,
      "type": "SCALAR"
    }
  ],
  "bufferViews": [
    {
      "buffer": 0,
      "byteLength": 132,
      "byteOffset": 0
    },
    {
      "buffer": 0,
      "byteLength": 132,
      "byteOffset": 132
    },
    {
      "buffer": 0,
      "byteLength": 88,
      "byteOffset": 264
    },
    {
      "buffer": 0,
      "byteLength": 56,
      "byteOffset": 352
    },
    {
      "buffer": 0,
      "byteLength": 132,
      "byteOffset": 408
    },
    {
      "buffer": 0,
      "byteLength": 132,
      "byteOffset": 540
    },
    {
      "buffer": 0,
      "byteLength": 88,
      "byteOffset": 672
    },
    {
      "buffer": 0,
      "byteLength": 56,
      "byteOffset": 760
    },
    {
      "buffer": 0,
      "byteLength": 132,
      "byteOffset": 816
    },
    {
      "buffer": 0,
      "byteLength": 132,
      "byteOffset": 948
    },
    {
      "buffer": 0,
      "byteLength": 88,
      "byteOffset": 1080
    },
    {
      "buffer": 0,
      "byteLength": 132,
      "byteOffset": 1168
    },
    {
      "buffer": 0,
      "byteLength": 132,
      "byteOffset": 1300
    },
    {
      "buffer": 0,
      "byteLength": 88,
      "byteOffset": 1432
    },
    {
      "buffer": 0,
      "byteLength": 23592,
      "byteOffset": 1520
    },
    {
      "buffer": 0,
      "byteLength": 23592,
      "byteOffset": 25112
    },
    {
      "buffer": 0,
      "byteLength": 15728,
      "byteOffset": 48704
    },
    {
      "buffer": 0,
      "byteLength": 5808,
      "byteOffset": 64432
    }
  ],
  "buffers": [
    {
      "uri": "Apartment_data.bin",
      "byteLength": 70240
    }
  ]
}